<?xml version="1.0" standalone="no"?>
<!DOCTYPE svg PUBLIC "-//W3C//DTD SVG 20010904//EN"
 "http://www.w3.org/TR/2001/REC-SVG-20010904/DTD/svg10.dtd">
<svg version="1.0" xmlns="http://www.w3.org/2000/svg"
 width="512.000000pt" height="512.000000pt" viewBox="0 0 512.000000 512.000000"
 preserveAspectRatio="xMidYMid meet">

<g transform="translate(0.000000,512.000000) scale(0.100000,-0.100000)"
fill="#000000" stroke="none">
<path d="M3134 4647 c-296 -205 -1052 -728 -1679 -1161 -627 -434 -1143 -792
-1147 -795 -4 -4 20 -23 55 -42 34 -20 548 -312 1142 -649 594 -338 1584 -900
2200 -1251 616 -350 1121 -636 1123 -634 3 3 -1147 4897 -1152 4902 -2 2 -245
-165 -542 -370z m-50 -1194 c3 -10 79 -333 170 -718 90 -385 168 -713 172
-729 l7 -29 -54 30 c-1025 581 -1315 746 -1322 752 -4 4 23 28 60 53 37 26
266 184 508 352 242 168 443 305 447 306 4 0 9 -8 12 -17z"/>
</g>
</svg>
