<?xml version="1.0" standalone="no"?>
<!DOCTYPE svg PUBLIC "-//W3C//DTD SVG 20010904//EN"
 "http://www.w3.org/TR/2001/REC-SVG-20010904/DTD/svg10.dtd">
<svg version="1.0" xmlns="http://www.w3.org/2000/svg"
 width="1024.000000pt" height="1024.000000pt" viewBox="0 0 1024.000000 1024.000000"
 preserveAspectRatio="xMidYMid meet">
<metadata>
Created by potrace 1.11, written by Peter Selinger 2001-2013
</metadata>
<g transform="translate(0.000000,1024.000000) scale(0.100000,-0.100000)"
fill="#000000" stroke="none">
<path d="M5024 9879 c-221 -26 -435 -159 -555 -344 -49 -76 -56 -91 -83 -165
-36 -99 -41 -134 -40 -270 1 -159 38 -281 127 -413 77 -116 173 -198 311 -267
l91 -46 0 -534 0 -535 -1560 -1 c-858 -1 -1571 -4 -1585 -7 -65 -13 -127 -32
-150 -44 -14 -7 -29 -13 -33 -13 -14 0 -120 -77 -162 -117 -99 -95 -162 -217
-182 -355 -3 -24 -6 -206 -6 -405 -1 -200 -3 -363 -6 -364 -3 0 -72 -2 -153
-4 -81 -2 -151 -6 -156 -9 -5 -3 -22 -7 -38 -10 -64 -12 -206 -80 -250 -121
-6 -5 -26 -24 -45 -40 -66 -58 -146 -180 -171 -258 -38 -122 -37 -94 -35
-1782 2 -896 5 -1637 8 -1645 3 -8 11 -35 18 -60 25 -86 101 -214 165 -276 91
-88 227 -161 336 -180 14 -2 36 -6 50 -8 14 -3 81 -5 150 -5 l126 -1 1 -368
c1 -202 4 -374 6 -382 2 -8 7 -33 11 -55 13 -67 82 -197 136 -258 94 -104 232
-183 360 -206 35 -7 1264 -10 3420 -10 3236 -1 3368 0 3436 18 120 31 200 77
289 166 105 104 164 217 181 343 4 26 8 196 10 377 2 182 4 340 4 352 0 21 4
22 133 23 146 1 176 4 257 26 148 42 277 137 369 274 47 70 67 116 91 210 19
73 20 122 19 1685 -1 1793 4 1682 -70 1832 -72 146 -201 263 -359 326 -81 32
-142 40 -302 41 -70 1 -129 4 -131 6 -3 3 -7 176 -10 385 -6 391 -11 440 -52
539 -43 101 -141 219 -232 276 -67 43 -180 87 -243 96 -30 4 -752 8 -1605 8
l-1550 1 0 535 0 535 85 41 c232 112 389 312 438 559 8 42 8 211 0 265 -32
212 -180 425 -373 537 -144 84 -325 121 -491 102z"/>
</g>
</svg>
